<svg width="71" height="34" viewBox="0 0 71 34" fill="none" xmlns="http://www.w3.org/2000/svg" xmlns:xlink="http://www.w3.org/1999/xlink">
<rect width="30" height="33.3333" fill="url(#pattern0_953_1489)"/>
<rect width="30" height="33.3333" fill="url(#pattern1_953_1489)"/>
<rect width="30" height="33.3333" fill="url(#pattern2_953_1489)"/>
<path d="M33.3184 12.7988C33.3184 12.6348 33.3496 12.4805 33.4121 12.3359C33.4746 12.1875 33.5605 12.0605 33.6699 11.9551C33.7793 11.8457 33.9062 11.7598 34.0508 11.6973C34.1992 11.6309 34.3555 11.5977 34.5195 11.5977H39.0781C39.2422 11.5977 39.3965 11.6309 39.541 11.6973C39.6895 11.7598 39.8184 11.8457 39.9277 11.9551C40.0371 12.0605 40.123 12.1875 40.1855 12.3359C40.248 12.4805 40.2793 12.6348 40.2793 12.7988V13.8828H39.0781V12.7988H34.5195V18.7988H39.0781V17.7207H40.2793V18.7988C40.2793 18.9629 40.248 19.1191 40.1855 19.2676C40.123 19.4121 40.0371 19.5391 39.9277 19.6484C39.8184 19.7578 39.6895 19.8438 39.541 19.9062C39.3965 19.9688 39.2422 20 39.0781 20H34.5195C34.3555 20 34.1992 19.9688 34.0508 19.9062C33.9062 19.8438 33.7793 19.7578 33.6699 19.6484C33.5605 19.5391 33.4746 19.4121 33.4121 19.2676C33.3496 19.1191 33.3184 18.9629 33.3184 18.7988V12.7988ZM43.2324 11.3574V20H42.084V11.3574H43.2324ZM50.5508 18.8457C50.5508 19.0059 50.5195 19.1562 50.457 19.2969C50.3984 19.4375 50.3164 19.5605 50.2109 19.666C50.1094 19.7676 49.9883 19.8496 49.8477 19.9121C49.7109 19.9707 49.5625 20 49.4023 20H46.3027C46.1465 20 45.998 19.9707 45.8574 19.9121C45.7168 19.8496 45.5938 19.7676 45.4883 19.666C45.3867 19.5605 45.3047 19.4375 45.2422 19.2969C45.1836 19.1562 45.1543 19.0059 45.1543 18.8457V14.9141C45.1543 14.7539 45.1836 14.6035 45.2422 14.4629C45.3047 14.3223 45.3867 14.2012 45.4883 14.0996C45.5938 13.9941 45.7168 13.9121 45.8574 13.8535C45.998 13.791 46.1465 13.7598 46.3027 13.7598H49.4023C49.5625 13.7598 49.7109 13.791 49.8477 13.8535C49.9883 13.9121 50.1094 13.9941 50.2109 14.0996C50.3164 14.2012 50.3984 14.3223 50.457 14.4629C50.5195 14.6035 50.5508 14.7539 50.5508 14.9141V18.8457ZM46.3027 14.9141V18.8457H49.4023V14.9141H46.3027ZM52.4785 13.7598H53.627V18.8457H56.8438V13.7598H57.998V20H56.8438V18.9453C56.832 19.0898 56.793 19.2266 56.7266 19.3555C56.6602 19.4844 56.5742 19.5977 56.4688 19.6953C56.3672 19.7891 56.25 19.8633 56.1172 19.918C55.9844 19.9727 55.8438 20 55.6953 20H53.627C53.4707 20 53.3223 19.9707 53.1816 19.9121C53.041 19.8496 52.918 19.7676 52.8125 19.666C52.7109 19.5605 52.6289 19.4375 52.5664 19.2969C52.5078 19.1562 52.4785 19.0059 52.4785 18.8457V13.7598ZM59.9199 14.9141C59.9199 14.7539 59.9492 14.6035 60.0078 14.4629C60.0703 14.3223 60.1523 14.2012 60.2539 14.0996C60.3594 13.9941 60.4824 13.9121 60.623 13.8535C60.7637 13.791 60.9121 13.7598 61.0684 13.7598H64.2852V11.3574H65.4395V20H64.2852V18.9453C64.2734 19.0898 64.2344 19.2266 64.168 19.3555C64.1016 19.4844 64.0156 19.5977 63.9102 19.6953C63.8086 19.7891 63.6914 19.8633 63.5586 19.918C63.4258 19.9727 63.2852 20 63.1367 20H61.0684C60.9121 20 60.7637 19.9707 60.623 19.9121C60.4824 19.8496 60.3594 19.7676 60.2539 19.666C60.1523 19.5605 60.0703 19.4375 60.0078 19.2969C59.9492 19.1562 59.9199 19.0059 59.9199 18.8457V14.9141ZM61.0684 18.8457H64.2852V14.9141H61.0684V18.8457ZM67.6016 17.8101H69.7915V20H67.6016V17.8101Z" fill="white"/>
<defs>
<pattern id="pattern0_953_1489" patternContentUnits="objectBoundingBox" width="1" height="1">
<use xlink:href="#image0_953_1489" transform="matrix(0.000542535 0 0 0.000488281 -0.0555555 0)"/>
</pattern>
<pattern id="pattern1_953_1489" patternContentUnits="objectBoundingBox" width="1" height="1">
<use xlink:href="#image0_953_1489" transform="matrix(0.000542535 0 0 0.000488281 -0.0555555 0)"/>
</pattern>
<pattern id="pattern2_953_1489" patternContentUnits="objectBoundingBox" width="1" height="1">
<use xlink:href="#image0_953_1489" transform="matrix(0.000542535 0 0 0.000488281 -0.0555555 0)"/>
</pattern>

</defs>
</svg>
